# xmcd CD database file
#
# Track frame offsets:
#	150
#	22800
#	40700
#	55475
#	73022
#	100465
#	117927
#	138285
#	154142
#	174232
#
# Disc length: 2548 seconds
#
# Revision: 0
# Processed by: cddbd v1.5.1PL0 Copyright (c) Steve Scherf et al.
# Submitted via: CDex 1.51
#
DISCID=7f09f20a
DTITLE=Bazillus - The Regulator
DYEAR=1992
DGENRE=Jazz
TTITLE0=The Regulator
TTITLE1=Out In The Space
TTITLE2=Is Anybody Listening?
TTITLE3=Back To Ed-e
TTITLE4=Greenhorn
TTITLE5=Cold Hard Cash
TTITLE6=Not Easy To Run
TTITLE7=Weeble-Cut
TTITLE8=Cruising
TTITLE9=Intercosmos
EXTD=YEAR: 1992
EXTT0=
EXTT1=
EXTT2=
EXTT3=
EXTT4=
EXTT5=
EXTT6=
EXTT7=
EXTT8=
EXTT9=
PLAYORDER=
